<svg width="462" height="148" viewBox="0 0 462 148" fill="none" xmlns="http://www.w3.org/2000/svg">
<path fill-rule="evenodd" clip-rule="evenodd" d="M117.223 111.234L83.1288 75.91C83.5058 75.2577 83.8468 74.5836 84.1497 73.8907C85.2086 71.4682 85.7809 68.8631 85.8339 66.2242C85.8869 63.5853 85.4196 60.9643 84.4586 58.5108C83.4976 56.0572 82.0618 53.8193 80.2332 51.9247C78.4045 50.0301 76.2188 48.516 73.8009 47.4687C71.3829 46.4215 68.7801 45.8616 66.141 45.8212C63.5018 45.7807 60.8781 46.2604 58.4196 47.2329C55.9611 48.2053 53.7159 49.6515 51.8123 51.4889C47.9678 55.1996 45.7478 60.2784 45.6408 65.6079C45.5337 70.9374 47.5483 76.0811 51.2415 79.9074C54.9346 83.7337 60.0038 85.9292 65.3337 86.0109C68.9717 86.0667 72.5278 85.1346 75.6415 83.3572L109.984 118.938C102.569 119.307 54.6598 120.747 32.604 97.8962C24.1625 89.1504 19.5576 77.3934 19.8023 65.2117C20.047 53.03 25.1212 41.4214 33.9087 32.9397C42.6962 24.4581 54.4772 19.7981 66.6599 19.9849C78.8427 20.1717 90.4292 25.19 98.8707 33.9359C120.26 56.0968 117.957 101.749 117.223 111.234Z" fill="white"/>
<path d="M163 119.257V26.4681H178.579V119.257H163Z" fill="white"/>
<path d="M200.532 119.257V46.1506H213.726L212.884 68.9261H215.27C216.58 63.3026 218.311 58.71 220.463 55.1484C222.708 51.493 225.515 48.775 228.884 46.9942C232.346 45.2134 236.369 44.323 240.954 44.323C249.095 44.323 255.27 47.2285 259.481 53.0395C263.785 58.8506 265.937 67.7077 265.937 79.611V119.257H250.498V81.1574C250.498 73.0032 249.282 67.0516 246.849 63.3026C244.416 59.4598 240.767 57.5384 235.902 57.5384C231.691 57.5384 228.089 58.8974 225.094 61.6155C222.194 64.2398 219.948 67.7077 218.357 72.0191C216.767 76.3305 215.878 81.0168 215.691 86.0781V119.257H200.532Z" fill="white"/>
<path d="M285.923 119.257V20.001H300.941V76.0962C304.403 74.2217 307.678 72.066 310.766 69.6291C313.947 67.0985 316.848 64.4741 319.468 61.7561C322.181 59.038 324.52 56.3668 326.485 53.7425C328.544 51.0244 330.135 48.4938 331.257 46.1506H348.942C347.258 49.7122 345.106 53.2738 342.486 56.8354C339.959 60.3033 337.059 63.5837 333.784 66.6767C330.509 69.676 326.907 72.3003 322.977 74.5497C319.14 76.7054 315.117 78.2051 310.906 79.0486V80.8763C316.146 80.3139 320.637 80.7357 324.38 82.1416C328.123 83.5475 331.351 85.6563 334.065 88.4681C336.778 91.2799 339.164 94.5603 341.223 98.3094C343.375 101.965 345.386 105.714 347.258 109.557L351.188 119.257H334.345L331.538 112.649C329.48 107.869 327.281 103.652 324.942 99.9964C322.696 96.2474 319.982 93.295 316.801 91.1393C313.713 88.9836 309.877 87.9057 305.292 87.9057H300.941V119.257H285.923Z" fill="white"/>
<path d="M364.598 119.257V20.1416H379.616V119.257H364.598Z" fill="white"/>
<path d="M426.491 144.001C422.748 144.001 418.958 143.579 415.122 142.736C411.379 141.986 407.917 140.767 404.736 139.08C401.554 137.487 398.888 135.378 396.736 132.754L402.911 120.663C405.344 123.85 408.619 126.24 412.736 127.833C416.853 129.52 421.204 130.364 425.789 130.364C431.029 130.364 435.333 129.239 438.701 126.99C442.163 124.834 444.783 121.46 446.561 116.867C448.339 112.275 449.275 106.51 449.368 99.5747L450.631 85.5157H447.965C446.935 92.1703 445.298 97.5127 443.052 101.543C440.9 105.573 438.233 108.479 435.052 110.259C431.871 112.04 428.128 112.931 423.824 112.931C418.49 112.931 413.999 111.619 410.35 108.994C406.794 106.276 404.081 102.293 402.209 97.0441C400.432 91.7017 399.543 85.1877 399.543 77.5021V46.1506H414.701V74.128C414.701 83.032 415.87 89.5459 418.21 93.6699C420.643 97.7939 424.245 99.8558 429.017 99.8558C431.637 99.8558 433.976 99.1998 436.035 97.8876C438.093 96.5754 439.871 94.654 441.368 92.1234C442.959 89.4991 444.175 86.2655 445.017 82.4227C445.953 78.58 446.514 74.128 446.701 69.0667V46.1506H462V100.278C462 106.089 461.532 111.337 460.596 116.024C459.661 120.616 458.21 124.646 456.245 128.114C454.374 131.676 452.035 134.628 449.228 136.971C446.421 139.408 443.099 141.189 439.263 142.314C435.52 143.439 431.263 144.001 426.491 144.001Z" fill="white"/>
</svg>
